<?xml version="1.0" encoding="UTF-8" standalone="no"?>
<!-- Uploaded to: SVG Repo, www.svgrepo.com, Transformed by: SVG Repo Mixer Tools -->

<svg
   width="800px"
   height="800px"
   viewBox="0 0 47.5 47.5"
   id="svg2"
   version="1.1"
   xml:space="preserve"
   fill="#000000"
   xmlns="http://www.w3.org/2000/svg"
   xmlns:svg="http://www.w3.org/2000/svg"><defs
   id="defs1"><rect
     x="77.124321"
     y="63.827026"
     width="577.9892"
     height="395.37296"
     id="rect2" /><rect
     x="196.82796"
     y="142.91966"
     width="289.60034"
     height="201.84267"
     id="rect1" /></defs>

  <g
   id="g1"><path
   d="m 46.25,33.75 c 0,6.9025 -10.07375,12.5 -22.5,12.5 -12.42625,0 -22.5,-5.5975 -22.5,-12.5 0,-6.9025 10.07375,-12.5 22.5,-12.5 12.42625,0 22.5,5.5975 22.5,12.5"
   id="path22"
   style="fill:#091179;fill-opacity:1;fill-rule:nonzero;stroke:none;stroke-width:1.25" />
    <path
   d="m 46.25,31.25 c 0,6.9025 -10.07375,12.5 -22.5,12.5 -12.42625,0 -22.5,-5.5975 -22.5,-12.5 0,-6.9025 10.07375,-12.5 22.5,-12.5 12.42625,0 22.5,5.5975 22.5,12.5"
   id="path26"
   style="fill:#0073fb;fill-opacity:1;fill-rule:nonzero;stroke:none;stroke-width:1.25" />
     <path
   d="M 23.75,40 C 5.0525,40 2.5,21.25 2.5,16.25 H 45 C 45,18.75 42.5525,40 23.75,40"
   id="path30"
   style="fill:#022788;fill-opacity:1;fill-rule:nonzero;stroke:none;stroke-width:1.25" />
     <path
   d="m 41.10225,9.939625 c -1.69625,-1.1725 -3.87875,-2.1175 -6.40125,-2.8125 2.34375,-0.72 5.68875,-0.38625 6.40125,2.8125 m 3.12875,3.365 c 3.0525,-12.6525 -12.22625,-9.6325 -15.255,-7.2475 -1.675,-0.18625 -3.42,-0.2925 -5.22625,-0.2925 -11.73625,0 -21.25,4.035 -21.25,10.555 0,6.52 9.51375,11.805 21.25,11.805 11.73625,0 21.25,-5.285 21.25,-11.805 0,-1.0775 -0.28125,-2.08 -0.76875,-3.015"
   id="path34"
   style="fill:#3dadff;fill-opacity:1;fill-rule:nonzero;stroke:none;stroke-width:1.25" />
	<path
   d="m 42.5,17.5 c 0,4.8325 -8.395,8.75 -18.75,8.75 C 13.395,26.25 5,22.3325 5,17.5 5,12.6675 13.395,8.75 23.75,8.75 c 10.355,0 18.75,3.9175 18.75,8.75"
   id="path46"
   style="fill:#42312c;fill-opacity:1;fill-rule:nonzero;stroke:none;stroke-width:1.25" />
     <path
   d="m 26.25,22.5 c -0.32,0 -0.64,-0.1225 -0.88375,-0.36625 C 22.445,19.2125 22.39625,16.0275 25.21,11.80625 26.13375,10.42 26.335,9 25.8075,7.585 25.23125,6.04125 24.01,5.09 23.64375,4.99 22.9525,4.99 22.44625,4.435 22.44625,3.745 22.44625,3.05375 23.06,2.5 23.75,2.5 c 1.24625,0 2.99375,1.44125 3.97875,3.28125 1.2925,2.41625 1.1375,5.04875 -0.43875,7.4125 -2.45125,3.6775 -1.91375,5.415 -0.15625,7.1725 0.48875,0.48875 0.48875,1.27875 0,1.7675 C 26.89,22.3775 26.57,22.5 26.25,22.5"
   id="path50"
   style="fill:#2f231d;fill-opacity:0.95936459;fill-rule:nonzero;stroke:none;stroke-width:1.25" />
     <path
   d="M 18.75,20 C 18.43,20 18.11,19.8775 17.86625,19.63375 14.945,16.7125 14.89625,13.5275 17.71,9.30625 18.61875,7.9425 18.8275,6.70375 18.3275,5.6225 17.7725,4.42125 16.53875,3.78625 16.2225,3.74875 15.5325,3.74875 14.98625,3.19 14.98625,2.5 c 0,-0.69125 0.57375,-1.25 1.26375,-1.25 1.24625,0 3.23,1.2175 4.2,3.02875 0.60125,1.12375 1.31625,3.45125 -0.66,6.415 -2.45125,3.6775 -1.91375,5.415 -0.15625,7.1725 0.48875,0.48875 0.48875,1.27875 0,1.7675 C 19.39,19.8775 19.07,20 18.75,20"
   id="path54"
   style="fill:#2f231d;fill-opacity:0.95936459;fill-rule:nonzero;stroke:none;stroke-width:1.25" />
     </g>  

<g
   id="g4"
   transform="matrix(0.03500842,0,0,0.03500842,18.426805,29.246394)"><g
     id="g3"><circle
       style="opacity:1;fill:#fdcb00;fill-opacity:1;stroke:none;stroke-width:17.3778;stroke-linecap:square;stroke-dashoffset:1.00233;paint-order:fill markers stroke"
       id="path2"
       cx="123.44325"
       cy="123"
       r="122.1135" /></g><path
     style="fill:#000000"
     d="m 93.992157,124.18997 c 0,0 4.803945,-5.45887 4.574089,-5.68873 C 98.33639,118.27138 55,161.48437 55,161.48437 V 105.73169 L 89.5,68.743458 c 0,0 5.732046,5.120915 5.998649,4.854312 C 95.765252,73.331167 54.516306,32 54.516306,32 H 120 V 95.635137 L 182.11753,161.90167 130.46874,162 Z"
     id="path1" /><text
     xml:space="preserve"
     style="font-style:normal;font-variant:normal;font-weight:bold;font-stretch:normal;font-size:24.9725px;line-height:1;font-family:Montserrat;-inkscape-font-specification:'Montserrat Bold';text-align:center;writing-mode:lr-tb;direction:ltr;text-anchor:middle;fill:#000000;fill-opacity:1;stroke-width:11.1427;stroke-linecap:square;stroke-dashoffset:1.00233;paint-order:fill markers stroke"
     x="120.20444"
     y="187.49567"
     id="text3"><tspan
       id="tspan2"
       x="120.20444"
       y="187.49567"
       style="font-style:normal;font-variant:normal;font-weight:300;font-stretch:normal;line-height:1;font-family:Montserrat;-inkscape-font-specification:'Montserrat Light';letter-spacing:-0.953498px;stroke-width:11.1427">Association</tspan><tspan
       x="122.01353"
       y="212.46817"
       id="tspan3"
       style="font-style:normal;font-variant:normal;font-weight:900;font-stretch:normal;line-height:1;font-family:Montserrat;-inkscape-font-specification:'Montserrat Heavy';letter-spacing:3.61818px;stroke-width:11.1427">Origami</tspan></text><text
     xml:space="preserve"
     id="text2"
     style="font-style:italic;font-weight:bold;font-size:192px;line-height:0.9;font-family:'Comic Sans MS';-inkscape-font-specification:'Comic Sans MS Bold Italic';text-align:center;writing-mode:lr-tb;direction:ltr;white-space:pre;shape-inside:url(#rect2);display:inline;opacity:1;fill:#fdcb00;fill-opacity:1;stroke:none;stroke-width:13.0885;stroke-linecap:square;stroke-dashoffset:1.00233;paint-order:fill markers stroke"
     transform="scale(0.49200001)" /><text
     xml:space="preserve"
     id="text1"
     style="font-style:normal;font-variant:normal;font-weight:bold;font-stretch:normal;font-size:29.3333px;line-height:0.9;font-family:Montserrat;-inkscape-font-specification:'Montserrat Bold';text-align:center;writing-mode:lr-tb;direction:ltr;white-space:pre;shape-inside:url(#rect1);display:inline;fill:#fdcb00;stroke-width:13.0885;stroke-linecap:square;stroke-dashoffset:1.00233;paint-order:fill markers stroke"
     transform="scale(0.49200001)" /></g></svg>
