<?xml version="1.0" encoding="UTF-8" standalone="no"?>
<!-- Uploaded to: SVG Repo, www.svgrepo.com, Transformed by: SVG Repo Mixer Tools -->

<svg
   height="800px"
   width="800px"
   version="1.1"
   id="Layer_1"
   viewBox="0 0 513.2 513.2"
   xml:space="preserve"
   fill="#000000"
   xmlns="http://www.w3.org/2000/svg"
   xmlns:svg="http://www.w3.org/2000/svg"><defs
   id="defs17"><rect
     x="77.124321"
     y="63.827026"
     width="577.9892"
     height="395.37296"
     id="rect2" /><rect
     x="196.82796"
     y="142.91966"
     width="289.60034"
     height="201.84267"
     id="rect1" /></defs>

<g
   id="SVGRepo_bgCarrier"
   stroke-width="0" />

<g
   id="SVGRepo_tracerCarrier"
   stroke-linecap="round"
   stroke-linejoin="round" />

<g
   id="SVGRepo_iconCarrier"> <path
   style="fill:#f129ff;"
   d="M412,424.4c4.4,0,8,3.6,8,8v8c0,4.4-3.6,8-8,8H312c-4.4,0-8-3.6-8-8v-8c0-4.4,3.6-8,8-8H412z"
   id="path1" /> <polygon
   style="fill:#ff00ae;"
   points="412,224.4 412,424.4 312,424.4 312,300.4 312,291.6 312,224.4 "
   id="polygon1" /> <path
   style="fill:#808285;"
   d="M312,224.4h-32v52.8c0,5.6,2,10.4,5.6,14.4c4.8,5.2,11.6,8.8,19.2,8.8h7.2v-8.8l0,0V224.4z"
   id="path2" /> <path
   style="fill:#f129ff;"
   d="M429.2,64.4H204.8c-12.4,0-23.2,7.2-29.2,17.2c-2.4,4.4-4,9.6-4,15.2v95.6c0,5.6,1.6,10.4,4,15.2 c5.6,10,16.8,17.2,29.2,17.2h74.8h32h100h17.2c44,0,80-36,80-80S473.2,64.4,429.2,64.4z"
   id="path3" /> <path
   style="fill:#808285;"
   d="M176,208.4h-19.6c-15.2,0-28.4-12.4-28.4-27.6v-72.4c0-15.2,13.2-28,28.4-28H176v1.2 c-2.4,4.4-4,9.6-4,15.2v95.6c0,5.6,1.6,10.4,4,15.2V208.4z"
   id="path4" /> <path
   style="fill:#6D6E71;"
   d="M128,184.4H68.4c-15.2,0-28.8-12.4-28.8-27.6v-4.4h0.8l-0.4-16h-0.4v-4c0-15.2,13.6-28,28.8-28h59.2 v4v72.8v3.2H128z"
   id="path5" /> <polygon
   style="fill:#231F20;"
   points="40,136.4 40,152.4 4,148.4 4,140.4 "
   id="polygon5" /> <path
   d="M40,156.4h-0.4l-36-3.6c-2-0.4-3.6-2-3.6-4v-8c0-2,1.6-3.6,3.6-4l36-4c2-0.4,4,1.2,4.4,3.6c0.4,2-1.2,4-3.6,4.4L8,144.4v0.8 l32.4,3.2c2,0.4,3.6,2,3.6,4.4C43.6,154.8,42,156.4,40,156.4z"
   id="path6" /> <path
   d="M128,188.4H68.4c-17.6,0-32.8-14.4-32.8-31.6v-24.4c0-17.2,14.8-32,32.8-32h59.2c2.4,0,4,1.6,4,4s-1.6,4-4,4H68.4 c-13.2,0-24.8,11.2-24.8,24v24.4c0,12.4,11.6,23.6,24.8,23.6h59.2c2.4,0,4,1.6,4,4S130,188.4,128,188.4z"
   id="path7" /> <path
   d="M176,212.4h-19.6c-17.6,0-32.4-14.4-32.4-31.6v-72.4c0-17.2,14.8-32,32.4-32H176c2.4,0,4,1.6,4,4s-1.6,4-4,4h-19.6 c-13.2,0-24.4,10.8-24.4,24v72.8c0,12.8,11.2,23.6,24.4,23.6H176c2.4,0,4,1.6,4,4S178,212.4,176,212.4z"
   id="path8" /> <path
   d="M429.2,228.4h-224c-13.2,0-26-7.6-32.4-19.2c-2.8-5.2-4.4-11.2-4.4-16.8V96.8c0-6,1.6-11.6,4.4-16.8 c6.4-11.6,19.2-19.2,32.4-19.2h224c46.4,0,84,37.6,84,84S475.2,228.4,429.2,228.4z M204.8,68.4c-10.4,0-20.4,6-25.6,15.2 c-2.4,4-3.6,8.4-3.6,13.2v95.6c0,4.4,1.2,8.8,3.6,13.2c5.2,9.2,15.2,14.8,25.6,14.8h224c42,0,76-34,76-76s-34-76-76-76H204.8z"
   id="path9" /> <path
   d="M312,304.4h-7.2c-8.4,0-16.4-3.6-22-10c-4.4-4.8-6.4-10.8-6.4-17.2v-52.8c0-2.4,1.6-4,4-4s4,1.6,4,4v52.8 c0,4.4,1.6,8.4,4.8,12c4,4.4,10,7.2,16,7.2h7.2c2.4,0,4,1.6,4,4S314,304.4,312,304.4z"
   id="path10" /> <path
   d="M464,160.4H364c-2.4,0-4-1.6-4-4s1.6-4,4-4h100c2.4,0,4,1.6,4,4S466,160.4,464,160.4z"
   id="path11" /> <path
   d="M412,428.4c-2.4,0-4-1.6-4-4v-200c0-2.4,1.6-4,4-4s4,1.6,4,4v200C416,426.8,414,428.4,412,428.4z"
   id="path12" /> <path
   d="M312,428.4c-2.4,0-4-1.6-4-4v-200c0-2.4,1.6-4,4-4s4,1.6,4,4v200C316,426.8,314,428.4,312,428.4z"
   id="path13" /> <path
   d="M412,452.4H312c-6.8,0-12-5.2-12-12v-8c0-6.8,5.2-12,12-12h100c6.8,0,12,5.2,12,12v8C424,447.2,418.4,452.4,412,452.4z M312,428.4c-2.4,0-4,1.6-4,4v8c0,2.4,1.6,4,4,4h100c2.4,0,4-1.6,4-4v-8c0-2.4-1.6-4-4-4H312z"
   id="path14" /> <path
   d="M464,112.4H364c-2.4,0-4-1.6-4-4s1.6-4,4-4h100c2.4,0,4,1.6,4,4S466,112.4,464,112.4z"
   id="path15" /> <path
   d="M464,136.4H364c-2.4,0-4-1.6-4-4s1.6-4,4-4h100c2.4,0,4,1.6,4,4S466,136.4,464,136.4z"
   id="path16" /> <path
   d="M464,184.4H364c-2.4,0-4-1.6-4-4s1.6-4,4-4h100c2.4,0,4,1.6,4,4S466,184.4,464,184.4z"
   id="path17" /> </g>

<g
   id="g4"
   transform="matrix(0.48540579,0,0,0.48540579,211.23728,84.244141)"><g
     id="g3"><circle
       style="opacity:1;fill:#fdcb00;fill-opacity:1;stroke:none;stroke-width:17.3778;stroke-linecap:square;stroke-dashoffset:1.00233;paint-order:fill markers stroke"
       id="path2-5"
       cx="123.44325"
       cy="123"
       r="122.1135" /></g><path
     style="fill:#000000"
     d="m 93.992157,124.18997 c 0,0 4.803945,-5.45887 4.574089,-5.68873 C 98.33639,118.27138 55,161.48437 55,161.48437 V 105.73169 L 89.5,68.743458 c 0,0 5.732046,5.120915 5.998649,4.854312 C 95.765252,73.331167 54.516306,32 54.516306,32 H 120 V 95.635137 L 182.11753,161.90167 130.46874,162 Z"
     id="path1-3" /><text
     xml:space="preserve"
     style="font-style:normal;font-variant:normal;font-weight:bold;font-stretch:normal;font-size:24.9725px;line-height:1;font-family:Montserrat;-inkscape-font-specification:'Montserrat Bold';text-align:center;writing-mode:lr-tb;direction:ltr;text-anchor:middle;fill:#000000;fill-opacity:1;stroke-width:11.1427;stroke-linecap:square;stroke-dashoffset:1.00233;paint-order:fill markers stroke"
     x="120.20444"
     y="187.49567"
     id="text3"><tspan
       id="tspan2"
       x="120.20444"
       y="187.49567"
       style="font-style:normal;font-variant:normal;font-weight:300;font-stretch:normal;line-height:1;font-family:Montserrat;-inkscape-font-specification:'Montserrat Light';letter-spacing:-0.953498px;stroke-width:11.1427">Association</tspan><tspan
       x="122.01353"
       y="212.46817"
       id="tspan3"
       style="font-style:normal;font-variant:normal;font-weight:900;font-stretch:normal;line-height:1;font-family:Montserrat;-inkscape-font-specification:'Montserrat Heavy';letter-spacing:3.61818px;stroke-width:11.1427">Origami</tspan></text><text
     xml:space="preserve"
     id="text2"
     style="font-style:italic;font-weight:bold;font-size:192px;line-height:0.9;font-family:'Comic Sans MS';-inkscape-font-specification:'Comic Sans MS Bold Italic';text-align:center;writing-mode:lr-tb;direction:ltr;white-space:pre;shape-inside:url(#rect2);display:inline;opacity:1;fill:#fdcb00;fill-opacity:1;stroke:none;stroke-width:13.0885;stroke-linecap:square;stroke-dashoffset:1.00233;paint-order:fill markers stroke"
     transform="scale(0.49200001)" /><text
     xml:space="preserve"
     id="text1"
     style="font-style:normal;font-variant:normal;font-weight:bold;font-stretch:normal;font-size:29.3333px;line-height:0.9;font-family:Montserrat;-inkscape-font-specification:'Montserrat Bold';text-align:center;writing-mode:lr-tb;direction:ltr;white-space:pre;shape-inside:url(#rect1);display:inline;fill:#fdcb00;stroke-width:13.0885;stroke-linecap:square;stroke-dashoffset:1.00233;paint-order:fill markers stroke"
     transform="scale(0.49200001)" /></g></svg>
